<?xml version="1.0" encoding="utf-8"?>
<!-- Generator: Adobe Illustrator 19.0.0, SVG Export Plug-In . SVG Version: 6.00 Build 0)  -->
<svg version="1.1" id="_x30_3" xmlns="http://www.w3.org/2000/svg" xmlns:xlink="http://www.w3.org/1999/xlink" x="0px" y="0px"
	 viewBox="0 0 706 622" style="enable-background:new 0 0 706 622;" xml:space="preserve">
<style type="text/css">
	.st0{fill:#FFFFFF;}
	.st1{fill:#B01116;}
	.st2{fill-rule:evenodd;clip-rule:evenodd;fill:none;}
	.st3{font-family:'MyriadPro-Regular';}
	.st4{font-size:45.3px;}
</style>
<rect x="1.5" y="7.9" class="st0" width="703" height="614.5"/>
<g>
	<path class="st1" d="M52.1,260.5c4.8,6.5,11.1,11.3,19,14.5c7.9,3.2,16.7,4.9,26.6,4.9c10.4,0,19.6-1.7,27.4-5.1
		c7.8-3.4,14.1-8.3,18.7-14.7c4.6-6.4,7.3-13.4,8.2-21.2c0.9-7.7,1.3-20.8,1.3-39.4v-31.6c0-19.1-0.4-32.3-1.4-40
		c-0.9-7.6-3.7-14.6-8.5-21.1c-4.8-6.5-11.1-11.3-19-14.5c-7.9-3.2-16.7-4.9-26.6-4.9c-10.4,0-19.6,1.7-27.4,5.1
		c-7.9,3.4-14.1,8.3-18.7,14.7c-4.6,6.4-7.4,13.4-8.2,21.2c-0.9,7.8-1.3,20.9-1.3,39.5v31.6c0,19,0.5,32.3,1.4,40
		C44.5,247,47.4,254,52.1,260.5z M90.2,138.7c0-9.5,0.7-15.3,2-17.2c1.3-2,3.2-2.9,5.8-2.9c3,0,4.9,1.2,5.8,3.6
		c1,2.4,1.4,7.9,1.4,16.5v84.9c0,10.9-0.5,17.8-1.4,20.7c-0.9,2.9-3,4.3-6.3,4.3c-3.2,0-5.3-1.2-6.1-3.8c-0.9-2.5-1.3-9.1-1.3-19.9
		V138.7z"/>
	<polygon class="st1" points="667.2,239 634.9,239 634.9,198.4 664.9,198.4 664.9,163.2 634.9,163.2 634.9,128.2 667,128.2 
		667,91.2 586.8,91.2 586.8,276 666.9,276 	"/>
	<path class="st1" d="M259.9,273.7c7.2-1.5,12.7-5.3,16.2-11.3c3.6-6,5.4-15.9,5.4-29.6v-36c0-12.8-1.9-22.2-5.6-28.1
		c-3.8-6-9.5-9.9-17.1-11.6c-7.6-1.7-18.8-2.6-33.7-2.6h-7.4v-24.7h43.6l12.2-38.6h-104V276h55.6C241,276,252.6,275.2,259.9,273.7z
		 M217.7,183.4c7.3,0.2,11.8,1.2,13.3,2.8c1.6,1.7,2.3,6.4,2.3,14.2v26.7c0,8.2-1.1,13.1-3.3,14.7c-2.1,1.6-6.3,2.3-12.4,2.3V183.4z
		"/>
	<rect x="103.2" y="542.3" class="st1" width="90.7" height="30.7"/>
	<polygon class="st1" points="573.8,239 539.5,239 539.5,198.4 569.5,198.4 569.5,163.2 539.5,163.2 539.5,128.2 571.6,128.2 
		571.6,91.2 491.4,91.2 491.4,276 573.6,276 	"/>
	<path class="st1" d="M485.6,239h-16.4V91.1h-48.1V239H407V91.1h-48.1V239H345V91.1h-48.1V276h139.3l-6.1,19.3H38.8V573h25.7v-75.7
		h14.3c6.1-17.7,11-41,14.9-69.8c3.9-28.9,5.8-60.4,5.8-94.6v-6.5h121.6V497h11.5v76h434.5V295.3H466.5L485.6,239z M343.2,542.2
		h-91.5V326.3h93.6v43.2h-37.5v40.9h35v41.1h-35V499H352L343.2,542.2z M511.2,415.8c0-21.7,0.5-37.1,1.5-46.1c1-9,4.2-17.3,9.6-24.7
		c5.4-7.5,12.6-13.2,21.8-17.2c9.1-4,19.8-6,32-6c11.6,0,21.9,1.9,31.1,5.7c9.2,3.8,16.6,9.4,22.2,17c5.6,7.6,8.9,15.8,10,24.7
		c1.1,8.9,1.6,24.4,1.6,46.7v36.9c0,21.7-0.5,37.1-1.5,46.1c-1.1,9.1-4.2,17.3-9.6,24.8c-5.4,7.5-12.7,13.2-21.8,17.2
		c-9.1,4-19.8,6-32,6c-11.6,0-21.9-1.9-31.1-5.7c-9.2-3.8-16.6-9.4-22.2-17c-5.6-7.6-8.9-15.8-10-24.7c-1-8.9-1.6-24.5-1.6-46.7
		V415.8z M503.7,542.2h-52.1l-19.7-157.3l-20.2,157.3h-52.7l36.6-215.9h68.3L503.7,542.2z"/>
	<path class="st1" d="M576,510.2c3.8,0,6.2-1.7,7.3-5.1c1-3.4,1.6-11.4,1.6-24.2v-99.2c0-10.1-0.5-16.5-1.7-19.3
		c-1.1-2.8-3.4-4.2-6.8-4.2c-3,0-5.2,1.1-6.7,3.4c-1.6,2.2-2.4,8.9-2.4,20.1v100.8c0,12.6,0.5,20.3,1.5,23.2
		C569.9,508.7,572.3,510.2,576,510.2z"/>
	<path class="st1" d="M148.3,368.9v1.6c0,41.3-4.5,83.5-13.3,126.4h30v-128H148.3z"/>
</g>
<rect x="42.2" y="39" class="st2" width="638.6" height="48.3"/>
<text transform="matrix(1 0 0 1 42.2095 71.1544)" class="st1 st3 st4">ОБЩЕСТВЕННАЯ ОРГАНИЗАЦИЯ</text>
</svg>
